<svg xmlns="http://www.w3.org/2000/svg" width="370.93378mm" height="76.28862mm" viewBox="0 0 370.93378 76.28862"><g style="stroke-width:.221603"><g style="stroke-width:.221603"><path d="M0 0c0-11.372-9.218-20.59-20.59-20.59S-41.18-11.372-41.18 0s9.219 20.59 20.59 20.59S0 11.372 0 0" style="fill:#fff;fill-opacity:1;fill-rule:nonzero;stroke:none;stroke-width:.221603" transform="matrix(1.59193 0 0 -1.59193 70.736 38.145)"/></g><path d="M105.463 570.036h6.812v-6.846h-6.812zm.851-15.404h-4.257v4.279h4.257zm-11.922 5.134c-3.763 0-6.813 3.065-6.813 6.847 0 3.781 3.05 6.846 6.813 6.846s6.813-3.065 6.813-6.846-3.051-6.847-6.813-6.847m3.406-11.124h-6.813v6.846h6.813zm-11.07 25.673H82.47v4.279h4.258zm0-19.683H82.47v4.279h4.258zm-10.219 15.404h6.813v-6.846h-6.813zm14.476 14.547h6.813v-6.845h-6.813zm11.072-5.989h4.257v-4.279h-4.257zm-7.665 11.98c-13.169 0-23.844-10.728-23.844-23.961s10.675-23.961 23.844-23.961 23.844 10.728 23.844 23.961-10.675 23.961-23.844 23.961" style="fill:#2e3192;fill-opacity:1;fill-rule:nonzero;stroke:none;stroke-width:.221603" transform="matrix(1.59193 0 0 -1.59193 -112.308 940.154)"/><g style="stroke-width:.221603"><path d="M0 0h-2.68v6.215h-4.121v2.004h4.121v4.279c0 .991-.157 1.734-.36 2.139H.18V2.365C.18 1.418.113.586 0 0m-12.498-5.968c-.382 0-.72.339-.72.698v4.054c0 .968-.158 1.734-.361 2.117h3.221v-4.864H.406v-2.005zm6.35 17.79V9.818h-4.098V9.3c0-2.567 1.622-4.864 4.954-5.629L-6.688 2.23c-1.892.405-3.918 1.644-5.022 3.219-1.103-1.575-3.13-2.814-5.021-3.219l-1.396 1.441c3.332.765 4.954 3.062 4.954 5.629v.518h-4.098v2.004h4.098v1.374c0 .428-.068 1.081-.225 1.441h3.152v-2.815z" style="fill:#2e3192;fill-opacity:1;fill-rule:nonzero;stroke:none;stroke-width:.221603" transform="matrix(1.59193 0 0 -1.59193 117.561 32.358)"/></g><g style="stroke-width:.221603"><path d="M0 0v2.004h15.087V0H9.075v-.608c0-2.883 3.648-4.909 7.004-5.134l-1.216-1.622c-2.342.09-5.832 1.486-7.319 3.31-1.486-1.824-4.976-3.22-7.319-3.31L-.991-5.742c3.356.225 7.004 2.251 7.004 5.134V0Zm8.985-11.147v-4.751c0-.834-.068-1.644-.157-2.14H6.103v6.891h-8.467v2.004h19.817v-2.004z" style="fill:#2e3192;fill-opacity:1;fill-rule:nonzero;stroke:none;stroke-width:.221603" transform="matrix(1.59193 0 0 -1.59193 128.064 13.323)"/></g><g style="stroke-width:.221603"><path d="M0 0h-2.613c.315.946.586 2.725.586 4.481v6.35h-12.228v2.005H.832V4.729C.832 2.77.382.788 0 0m-16.731-4.369v2.005h4.818v5.652c0 .766-.158 1.621-.338 2.004h3.175v-7.656h2.252v5.652c0 .766-.157 1.621-.338 2.004h3.176v-7.656h7.07v-2.005z" style="fill:#2e3192;fill-opacity:1;fill-rule:nonzero;stroke:none;stroke-width:.221603" transform="matrix(1.59193 0 0 -1.59193 185.191 31.283)"/></g><g style="stroke-width:.221603"><path d="M0 0c-1.328 0-2.387-1.262-2.387-2.838S-1.328-5.675 0-5.675s2.387 1.261 2.387 2.837S1.329 0 0 0m0-7.657c-2.882 0-5.201 2.162-5.201 4.819S-2.882 1.981 0 1.981c2.883 0 5.202-2.162 5.202-4.819S2.883-7.657 0-7.657M7.837.698c0 .99-.158 1.734-.36 2.139h3.219v-18.353c0-.946-.067-1.779-.179-2.364h-2.68v6.034a13.7 13.7 0 0 0-3.716-.517H-6.868v2.004H4.369c1.328 0 2.544.158 3.468.36z" style="fill:#2e3192;fill-opacity:1;fill-rule:nonzero;stroke:none;stroke-width:.221603" transform="matrix(1.59193 0 0 -1.59193 207.567 13.573)"/></g><g style="stroke-width:.221603"><path d="M0 0h-2.68v4.977h-4.346v2.004h4.346v2.365c0 .99-.158 1.734-.36 2.139H.18v-9.12C.18 1.419.112.586 0 0m-6.351-2.049c-1.419 0-2.545-1.194-2.545-2.725s1.126-2.702 2.545-2.702c1.442 0 2.545 1.171 2.545 2.702s-1.103 2.725-2.545 2.725m0-7.409c-2.95 0-5.381 2.14-5.381 4.684 0 2.567 2.431 4.707 5.381 4.707s5.405-2.14 5.405-4.707c0-2.544-2.454-4.684-5.405-4.684M-10.246 8.49c0-2.973 2.207-5.314 5.18-6.125L-6.418.879c-1.981.495-4.144 1.688-5.292 3.445-1.148-1.757-3.31-2.95-5.292-3.445l-1.351 1.486c2.973.811 5.179 3.152 5.179 6.125v.09h-3.94v2.003h10.808V8.58h-3.94z" style="fill:#2e3192;fill-opacity:1;fill-rule:nonzero;stroke:none;stroke-width:.221603" transform="matrix(1.59193 0 0 -1.59193 260.156 27.34)"/></g><path d="M243.63 576.913h8.962v2.455h-8.962zm8.962 4.369v.675c0 .969-.157 1.734-.383 2.14h3.221v-9.166h-13.939c-.36 0-.699.338-.699.699v6.237c0 .969-.157 1.735-.383 2.116h3.221v-2.701zm-3.04-10.561v-4.414c0-.833-.068-1.644-.157-2.14h-2.725v6.554h-8.467v2.004h19.816v-2.004z" style="fill:#2e3192;fill-opacity:1;fill-rule:nonzero;stroke:none;stroke-width:.221603" transform="matrix(1.59193 0 0 -1.59193 -112.308 940.154)"/><g style="stroke-width:.221603"><path d="M0 0h-2.612c.315.946.586 2.725.586 4.481v6.35h-12.228v2.005H.833V4.729C.833 2.77.383.788 0 0m-16.731-4.369v2.005h4.819v5.652c0 .766-.158 1.621-.338 2.004h3.175v-7.656h2.252v5.652c0 .766-.157 1.621-.338 2.004h3.176v-7.656h7.07v-2.005z" style="fill:#2e3192;fill-opacity:1;fill-rule:nonzero;stroke:none;stroke-width:.221603" transform="matrix(1.59193 0 0 -1.59193 330.973 31.283)"/></g><g style="stroke-width:.221603"><path d="M0 0v3.648h-11.664v2.004H2.86V.248c0-1.464-.27-2.95-.608-3.94h3.197v-2.005h-8.467v-6.327c0-.834-.067-1.645-.157-2.14h-2.724v8.467h-8.468v2.005H-.383C-.157-2.702 0-1.351 0 0" style="fill:#2e3192;fill-opacity:1;fill-rule:nonzero;stroke:none;stroke-width:.221603" transform="matrix(1.59193 0 0 -1.59193 362.26 19.49)"/></g><g style="stroke-width:.221603"><path d="M0 0q.015-1.36-.998-2.345-1.013-.984-2.822-.984-1.823 0-2.808.984T-7.612 0l.014 6.772h1.592V.231q0-.666.42-1.389.419-.724 1.766-.723 1.33 0 1.787.723t.456 1.389l.015 6.541h1.534z" style="fill:#2e3192;fill-opacity:1;fill-rule:nonzero;stroke:none;stroke-width:.221603" transform="matrix(1.59193 0 0 -1.59193 253.501 61.74)"/></g><g style="stroke-width:.221603"><path d="M0 0v9.797h1.533l.016-9.812Z" style="fill:#2e3192;fill-opacity:1;fill-rule:nonzero;stroke:none;stroke-width:.221603" transform="matrix(1.59193 0 0 -1.59193 257.352 66.555)"/></g><g style="stroke-width:.221603"><path d="M0 0q0-1.274-.868-1.997a3.07 3.07 0 0 0-2.025-.723q-1.116 0-1.969.701-.854.702-.84 2.005l.015.911h1.548V.232q0-.825.376-1.165t.87-.34q.52 0 .917.34.398.34.398 1.165l.016 7.105h1.533z" style="fill:#2e3192;fill-opacity:1;fill-rule:nonzero;stroke:none;stroke-width:.221603" transform="matrix(1.59193 0 0 -1.59193 271.665 62.64)"/></g><g style="stroke-width:.221603"><path d="M0 0v9.797h6.859l.029-1.447H1.562V5.759l5.08-.014V4.327h-5.08V1.432h5.427l.015-1.447z" style="fill:#2e3192;fill-opacity:1;fill-rule:nonzero;stroke:none;stroke-width:.221603" transform="matrix(1.59193 0 0 -1.59193 275.644 66.555)"/></g><g style="stroke-width:.221603"><path d="M0 0q.76 1.05.76 2.699 0 1.636-.76 2.655-.76 1.02-2.092 1.021-1.345 0-2.084-1.021-.737-1.02-.737-2.655 0-1.649.737-2.699.739-1.049 2.084-1.049Q-.76-1.049 0 0m1.223 6.404q1.244-1.419 1.245-3.705 0-2.315-1.245-3.756-1.245-1.439-3.315-1.439-2.055 0-3.277 1.439-1.223 1.44-1.223 3.756 0 2.286 1.223 3.705 1.222 1.418 3.277 1.418 2.07 0 3.315-1.418" style="fill:#2e3192;fill-opacity:1;fill-rule:nonzero;stroke:none;stroke-width:.221603" transform="matrix(1.59193 0 0 -1.59193 299.875 63.074)"/></g><g style="stroke-width:.221603"><path d="m0 0-4.326 7.467V-.015l-1.564.03v9.796l1.781-.014L.246 2.344l.015 7.467h1.534L1.81 0Z" style="fill:#2e3192;fill-opacity:1;fill-rule:nonzero;stroke:none;stroke-width:.221603" transform="matrix(1.59193 0 0 -1.59193 316.488 66.578)"/></g><g style="stroke-width:.221603"><path d="m0 0-.015 1.028Q-.419.535-1.121.116t-1.643-.42q-2.083 0-3.293 1.448-1.207 1.446-1.207 3.762 0 2.286 1.2 3.698 1.202 1.41 3.3 1.411 1.968 0 2.982-1.115 1.013-1.115 1.244-2.141H-.232q-.217.636-.795 1.223-.579.585-1.737.585-1.36 0-2.091-1.021-.73-1.02-.73-2.64t.73-2.684 2.091-1.064q1.23 0 1.918.803.687.802.788 1.759h-2.663v1.36h4.27l.029-5.094z" style="fill:#2e3192;fill-opacity:1;fill-rule:nonzero;stroke:none;stroke-width:.221603" transform="matrix(1.59193 0 0 -1.59193 334.304 66.564)"/></g><g style="stroke-width:.221603"><path d="M0 0q.441.412.456 1.078Q.47 1.729 0 2.127t-1.367.398h-2.591V-.413h2.562Q-.442-.413 0 0m-.361 4.349q.426.361.426.969 0 .564-.398.876-.398.31-1.165.311h-2.46V3.987h2.446q.724 0 1.151.362M1.671 2.51q.52-.665.449-1.693A2.53 2.53 0 0 0 1.057-1.15q-.991-.739-2.411-.724l-4.167.029v9.797h4.241q1.33 0 2.091-.644.759-.643.889-1.512.13-.84-.225-1.462-.354-.622-.83-.955.505-.203 1.026-.869" style="fill:#2e3192;fill-opacity:1;fill-rule:nonzero;stroke:none;stroke-width:.221603" transform="matrix(1.59193 0 0 -1.59193 349.236 63.618)"/></g><g style="stroke-width:.221603"><path d="M0 0q.015-1.36-.998-2.345-1.014-.984-2.822-.984-1.824 0-2.809.984-.983.984-.983 2.345l.014 6.772h1.592V.231q0-.666.42-1.389.419-.724 1.766-.723 1.33 0 1.787.723t.455 1.389l.016 6.541h1.533z" style="fill:#2e3192;fill-opacity:1;fill-rule:nonzero;stroke:none;stroke-width:.221603" transform="matrix(1.59193 0 0 -1.59193 367.63 61.74)"/></g><g style="stroke-width:.221603"><path d="M0 0q.76 1.05.76 2.699 0 1.636-.76 2.655-.76 1.02-2.091 1.021-1.346 0-2.085-1.021t-.737-2.655q0-1.649.737-2.699.739-1.049 2.085-1.049Q-.761-1.049 0 0m1.223 6.404q1.244-1.419 1.244-3.705 0-2.315-1.244-3.756-1.245-1.439-3.314-1.439-2.056 0-3.278 1.439-1.223 1.44-1.223 3.756 0 2.286 1.223 3.705 1.222 1.418 3.278 1.418 2.069 0 3.314-1.418" style="fill:#2e3192;fill-opacity:1;fill-rule:nonzero;stroke:none;stroke-width:.221603" transform="matrix(1.59193 0 0 -1.59193 212.398 63.074)"/></g><g style="stroke-width:.221603"><path d="M0 0v-2.721l4.602-.014.028-1.462H0v-4.182l-1.564.029v9.797h6.832V0Z" style="fill:#2e3192;fill-opacity:1;fill-rule:nonzero;stroke:none;stroke-width:.221603" transform="matrix(1.59193 0 0 -1.59193 222.124 53.263)"/></g><g style="stroke-width:.221603"><path d="M0 0q.753 1.006.753 2.467Q.753 3.93 0 4.92q-.753.992-2.301.992h-1.606v-6.918h1.606Q-.753-1.006 0 0m1.251 5.948q1.224-1.411 1.224-3.481 0-2.098-1.224-3.524-1.222-1.424-3.306-1.41l-3.415.029v9.797h3.415q2.084 0 3.306-1.411" style="fill:#2e3192;fill-opacity:1;fill-rule:nonzero;stroke:none;stroke-width:.221603" transform="matrix(1.59193 0 0 -1.59193 100.614 62.671)"/></g><g style="stroke-width:.221603"><path d="M0 0v9.797h1.534l.014-9.812Z" style="fill:#2e3192;fill-opacity:1;fill-rule:nonzero;stroke:none;stroke-width:.221603" transform="matrix(1.59193 0 0 -1.59193 107.917 66.552)"/></g><g style="stroke-width:.221603"><path d="M0 0q.759 1.05.759 2.699 0 1.635-.759 2.655-.76 1.02-2.091 1.021-1.347 0-2.084-1.021-.739-1.02-.739-2.655 0-1.649.739-2.699.737-1.049 2.084-1.049Q-.76-1.049 0 0m1.223 6.404q1.244-1.419 1.244-3.705 0-2.315-1.244-3.756-1.244-1.439-3.314-1.439-2.055 0-3.279 1.439-1.222 1.44-1.222 3.756 0 2.286 1.222 3.705 1.224 1.418 3.279 1.418 2.07 0 3.314-1.418" style="fill:#2e3192;fill-opacity:1;fill-rule:nonzero;stroke:none;stroke-width:.221603" transform="matrix(1.59193 0 0 -1.59193 124.248 63.071)"/></g><g style="stroke-width:.221603"><path d="M0 0q-.203.666-.781 1.26-.58.593-1.766.593-1.317 0-2.07-1.006t-.752-2.684q0-1.68.752-2.714.753-1.034 2.07-1.034 1.158 0 1.766.665t.81 1.433l1.65-.015q-.26-1.2-1.274-2.359-1.013-1.157-2.952-1.158-2.098 0-3.299 1.434-1.202 1.432-1.202 3.748 0 2.301 1.202 3.711 1.201 1.412 3.299 1.412 1.983 0 2.995-1.122Q1.462 1.042 1.693 0Z" style="fill:#2e3192;fill-opacity:1;fill-rule:nonzero;stroke:none;stroke-width:.221603" transform="matrix(1.59193 0 0 -1.59193 141.952 55.85)"/></g><g style="stroke-width:.221603"><path d="M0 0v9.797h6.86l.03-1.447H1.563V5.759l5.08-.014V4.327h-5.08V1.432H6.99l.015-1.447z" style="fill:#2e3192;fill-opacity:1;fill-rule:nonzero;stroke:none;stroke-width:.221603" transform="matrix(1.59193 0 0 -1.59193 147.84 66.552)"/></g><g style="stroke-width:.221603"><path d="M0 0a2.32 2.32 0 0 0 .354-1.613Q.209-2.756-.738-3.625q-.949-.868-2.714-.868-1.953 0-2.938 1.216-.984 1.215-.998 2.547h1.577q.029-1.057.702-1.679t1.657-.623q.984 0 1.476.428.492.426.637 1.034.115.492-.152.832-.268.34-.76.572a3.7 3.7 0 0 1-1.353.362 5 5 0 0 0-1.483.362q-1 .405-1.519 1.02-.521.614-.464 1.642.043.984.919 1.91.876.927 2.627.927 2.04 0 2.822-1.216.78-1.215.752-2.113h-1.563a2 2 0 0 1-.499 1.324q-.485.558-1.512.557-.955 0-1.39-.455-.433-.456-.448-.963-.015-.564.361-.853.377-.29.782-.435.508-.188 1.324-.303a5.6 5.6 0 0 0 1.614-.493Q-.471.731 0 0" style="fill:#2e3192;fill-opacity:1;fill-rule:nonzero;stroke:none;stroke-width:.221603" transform="matrix(1.59193 0 0 -1.59193 173.211 60.08)"/></g><g style="stroke-width:.221603"><path d="M0 0v9.797h6.86l.03-1.447H1.563V5.759l5.08-.014V4.327h-5.08V1.432H6.99l.015-1.447z" style="fill:#2e3192;fill-opacity:1;fill-rule:nonzero;stroke:none;stroke-width:.221603" transform="matrix(1.59193 0 0 -1.59193 176.936 66.552)"/></g></g></svg>